<?xml version="1.0" encoding="utf-8"?>
<svg version="1.1" id="logo" xmlns="http://www.w3.org/2000/svg" xmlns:xlink="http://www.w3.org/1999/xlink" x="0px"
     y="0px" viewBox="0 0 250.5 60.5" style="enable-background:new 0 0 250.5 60.5;" xml:space="preserve">
    <g>
        <path d="M1.4,18.8C1.4,8.7,9.1,1.4,18.9,1.4c6.2,0,10.6,2.2,13.6,7l-5.4,3.8c-1.6-2.6-4.4-4.5-8.3-4.5c-6.2,0-10.3,4.7-10.3,11.1
            c0,6.4,4.2,11.2,10.3,11.2c4.4,0,6.9-2.1,8.8-5l5.5,3.8c-3,4.6-7.7,7.5-14.2,7.5C9.1,36.2,1.4,28.8,1.4,18.8z"/>
        <path d="M34.1,18.8c0-10.1,7.8-17.5,17.6-17.5c9.8,0,17.6,7.4,17.6,17.5s-7.8,17.5-17.6,17.5C41.9,36.2,34.1,28.8,34.1,18.8z
             M62.1,18.8c0-6.4-4.2-11.2-10.4-11.2c-6.2,0-10.4,4.9-10.4,11.2c0,6.4,4.2,11.2,10.4,11.2C57.9,30,62.1,25.1,62.1,18.8z"/>
        <path d="M72.8,1.8h7v27.9h15.4v6.2H72.8V1.8z"/>
        <path d="M97,23.5V1.8h7v21.3c0,5,2.1,6.9,6.8,6.9c4.6,0,6.7-1.9,6.7-6.9V1.8h7v21.7c0,8.6-6,12.8-13.7,12.8
            C103,36.2,97,32.1,97,23.5z"/>
        <path d="M129,1.4h0.5l16.8,18.4l16.5-18.4h0.6v34.4h-6.8V23c0-2.3,0.3-6,0.3-6s-2,3-3.7,4.8l-6.8,7.6h-0.7l-6.8-7.6
            c-1.6-1.8-3.7-4.8-3.7-4.8s0.3,3.7,0.3,6v12.8H129V1.4z"/>
        <path d="M168.1,1.8h13.2c6.4,0,9.9,4,9.9,8.8c0,3.2-1.8,5.3-4.8,6.3c4.6,1.1,6.9,4.2,6.9,8.5c0,6.1-4.3,10.5-11.4,10.5h-13.8V1.8z
             M180.5,14.3c2.3,0,3.8-1.3,3.8-3.2s-1.3-3.2-3.4-3.2h-5.8v6.4H180.5z M181.5,29.6c2.8,0,4.7-1.9,4.7-4.7c0-2.8-1.9-4.7-5.1-4.7
            h-6.1v9.4H181.5z"/>
        <path d="M196,23.5V1.8h7v21.3c0,5,2.2,6.9,6.8,6.9c4.6,0,6.7-1.9,6.7-6.9V1.8h7v21.7c0,8.6-6,12.8-13.7,12.8
            C201.9,36.2,196,32.1,196,23.5z"/>
        <path d="M225,29.1l5.7-3.3c1.5,2.5,3.5,4.3,6.9,4.3c2.9,0,4.8-1.4,4.8-3.5c0-2.4-1.9-3.3-5.1-4.7l-1.8-0.8c-5-2.1-8.4-4.9-8.4-10.6
            c0-5.3,4-9.3,10.3-9.3c4.5,0,7.7,1.6,10,5.6l-5.5,3.5c-1.2-2.1-2.5-3-4.5-3c-2,0-3.3,1.3-3.3,3c0,2.1,1.3,3,4.3,4.3l1.8,0.8
            c5.9,2.6,9.3,5.2,9.3,11c0,6.3-4.9,9.8-11.6,9.8C231.3,36.2,227.1,33.1,225,29.1z"/>
    </g>
    <g>
        <polygon points="196,46.6 54.2,46.6 54.2,45.6 196,45.6 196,46.6"/>
    </g>
    <g>
        <path d="M26.6,55.1h-1.9v-1.2h5.1v1.2H28v5.4h-1.4V55.1z"/>
        <path d="M42.8,60.5h-1.6l-1.1-1.7c-0.1,0-0.3,0-0.4,0h-0.5v1.6h-1.4v-6.6h1.8c1.8,0,3,0.9,3,2.5c0,1-0.5,1.7-1.3,2.1L42.8,60.5z
             M39.7,57.7c1.1,0,1.6-0.3,1.6-1.3c0-0.9-0.5-1.3-1.6-1.3h-0.4v2.6H39.7z"/>
        <path d="M53.3,53.8h0.1l3,6.7h-1.4l-0.3-0.7h-2.7l-0.3,0.7h-1.3L53.3,53.8z M54.3,58.6l-0.5-1.1c-0.2-0.5-0.4-1.2-0.4-1.2
            S53.2,57,53,57.5l-0.5,1.1H54.3z"/>
        <path d="M64.4,53.9h2c2,0,3.5,1.4,3.5,3.3c0,2-1.4,3.3-3.5,3.3h-2V53.9z M66.4,59.3c1.5,0,2.1-0.9,2.1-2.1c0-1.2-0.7-2.1-2.1-2.1
            h-0.6v4.2H66.4z"/>
        <path d="M78.2,53.9h1.4v6.6h-1.4V53.9z"/>
        <path d="M89.9,57.4c-0.3-0.3-0.8-0.9-0.8-0.9s0.1,0.7,0.1,1.2v2.8H88v-6.7h0.1l3.3,3.1c0.3,0.3,0.8,0.9,0.8,0.9s-0.1-0.7-0.1-1.2
            v-2.8h1.3v6.7h-0.1L89.9,57.4z"/>
        <path d="M101.7,57.2c0-2,1.4-3.4,3.4-3.4c1.1,0,1.9,0.3,2.4,0.9l-0.9,0.9c-0.3-0.3-0.7-0.6-1.5-0.6c-1.2,0-2,0.9-2,2.2
            c0,1.2,0.8,2.2,2.2,2.2c0.4,0,1-0.1,1.3-0.2v-1H105V57h2.8v2.9c-0.4,0.3-1.3,0.8-2.5,0.8C103.1,60.6,101.7,59.2,101.7,57.2z"/>
        <path d="M117.7,57.6h2.2v1.2h-2.2V57.6z"/>
        <path d="M130,53.9h1.8c1.8,0,3,1,3,2.6c0,1.6-1.1,2.5-3,2.5h-0.5v1.5H130V53.9z M131.8,57.8c1.1,0,1.6-0.4,1.6-1.4
            c0-0.9-0.5-1.4-1.6-1.4h-0.4v2.7H131.8z"/>
        <path d="M144.8,53.8h0.1l3,6.7h-1.4l-0.3-0.7h-2.7l-0.3,0.7h-1.3L144.8,53.8z M145.7,58.6l-0.5-1.1c-0.2-0.5-0.4-1.2-0.4-1.2
            s-0.2,0.7-0.4,1.2l-0.5,1.1H145.7z"/>
        <path d="M160.7,60.5h-1.6l-1.1-1.7c-0.1,0-0.3,0-0.4,0h-0.5v1.6h-1.4v-6.6h1.8c1.8,0,3,0.9,3,2.5c0,1-0.5,1.7-1.3,2.1L160.7,60.5z
             M157.6,57.7c1.1,0,1.6-0.3,1.6-1.3c0-0.9-0.5-1.3-1.6-1.3h-0.4v2.6H157.6z"/>
        <path d="M170.3,55.1h-1.9v-1.2h5.1v1.2h-1.9v5.4h-1.4V55.1z"/>
        <path d="M183.5,57.4c-0.3-0.3-0.8-0.9-0.8-0.9s0.1,0.7,0.1,1.2v2.8h-1.3v-6.7h0.1L185,57c0.3,0.3,0.8,0.9,0.8,0.9s-0.1-0.7-0.1-1.2
            v-2.8h1.3v6.7h-0.1L183.5,57.4z"/>
        <path d="M195.4,53.9h4.4v1.2h-3v2.1h2.7v1.2h-2.7v1h3.2v1.2h-4.5V53.9z"/>
        <path d="M213.1,60.5h-1.6l-1.1-1.7c-0.1,0-0.3,0-0.4,0h-0.5v1.6h-1.4v-6.6h1.8c1.8,0,3,0.9,3,2.5c0,1-0.5,1.7-1.3,2.1L213.1,60.5z
             M210,57.7c1.1,0,1.6-0.3,1.6-1.3c0-0.9-0.5-1.3-1.6-1.3h-0.4v2.6H210z"/>
        <path d="M220.7,59.2l1.1-0.6c0.3,0.5,0.7,0.8,1.3,0.8c0.6,0,0.9-0.3,0.9-0.7c0-0.5-0.4-0.6-1-0.9l-0.3-0.1c-1-0.4-1.6-0.9-1.6-2.1
            c0-1,0.8-1.8,2-1.8c0.9,0,1.5,0.3,1.9,1.1l-1.1,0.7c-0.2-0.4-0.5-0.6-0.9-0.6c-0.4,0-0.7,0.3-0.7,0.6c0,0.4,0.3,0.6,0.8,0.8
            l0.3,0.1c1.2,0.5,1.8,1,1.8,2.1c0,1.2-1,1.9-2.3,1.9C221.9,60.6,221.1,60,220.7,59.2z"/>
    </g>
</svg>
